<?xml version="1.0" encoding="UTF-8"?>
<svg xmlns="http://www.w3.org/2000/svg" xmlns:xlink="http://www.w3.org/1999/xlink" width="146.8pt" height="120.41pt" viewBox="0 0 146.8 120.41" version="1.1">
<g id="surface1">
<path style=" stroke:none;fill-rule:nonzero;fill:rgb(13.699341%,12.199402%,12.5%);fill-opacity:1;" d="M 73.402344 22.863281 C 72.9375 23.226563 72.484375 23.601563 72.039063 23.988281 C 64.453125 30.589844 59.652344 40.304688 59.652344 51.152344 C 59.652344 61.996094 64.453125 71.710938 72.039063 78.3125 C 72.484375 78.699219 72.9375 79.074219 73.402344 79.441406 C 73.863281 79.074219 74.320313 78.699219 74.765625 78.3125 C 82.347656 71.710938 87.152344 61.996094 87.152344 51.152344 C 87.152344 40.304688 82.347656 30.589844 74.765625 23.988281 C 74.320313 23.601563 73.863281 23.226563 73.402344 22.863281 M 95.648438 15.152344 C 88.28125 15.152344 81.425781 17.367188 75.722656 21.167969 C 76.011719 21.40625 76.308594 21.640625 76.589844 21.886719 C 85.074219 29.265625 89.9375 39.933594 89.9375 51.152344 C 89.9375 62.367188 85.074219 73.035156 76.59375 80.414063 C 76.308594 80.65625 76.011719 80.894531 75.722656 81.132813 C 81.425781 84.933594 88.28125 87.152344 95.648438 87.152344 C 115.53125 87.152344 131.648438 71.03125 131.648438 51.152344 C 131.648438 31.269531 115.53125 15.152344 95.648438 15.152344 Z M 70.210938 80.414063 C 70.492188 80.65625 70.789063 80.894531 71.082031 81.132813 C 65.375 84.933594 58.523438 87.152344 51.152344 87.152344 C 31.269531 87.152344 15.152344 71.03125 15.152344 51.152344 C 15.152344 31.269531 31.269531 15.152344 51.152344 15.152344 C 58.523438 15.152344 65.375 17.367188 71.082031 21.167969 C 70.789063 21.40625 70.492188 21.640625 70.210938 21.886719 C 61.730469 29.265625 56.867188 39.933594 56.867188 51.152344 C 56.867188 62.371094 61.730469 73.035156 70.210938 80.414063 Z M 130.523438 73.457031 L 130.523438 72.0625 L 130.15625 72.0625 L 129.738281 73.023438 L 129.316406 72.0625 L 128.953125 72.0625 L 128.953125 73.457031 L 129.210938 73.457031 L 129.210938 72.40625 L 129.605469 73.3125 L 129.871094 73.3125 L 130.265625 72.402344 L 130.265625 73.457031 Z M 128.210938 73.457031 L 128.210938 72.300781 L 128.679688 72.300781 L 128.679688 72.0625 L 127.488281 72.0625 L 127.488281 72.300781 L 127.957031 72.300781 L 127.957031 73.457031 Z M 129.335938 104.539063 L 129.335938 104.773438 L 129.554688 104.773438 C 129.601563 104.773438 129.644531 104.765625 129.671875 104.746094 C 129.703125 104.726563 129.714844 104.695313 129.714844 104.65625 C 129.714844 104.617188 129.703125 104.585938 129.671875 104.566406 C 129.644531 104.550781 129.601563 104.539063 129.554688 104.539063 Z M 129.554688 104.375 C 129.667969 104.375 129.757813 104.398438 129.816406 104.449219 C 129.878906 104.5 129.910156 104.566406 129.910156 104.65625 C 129.910156 104.726563 129.886719 104.789063 129.835938 104.835938 C 129.785156 104.882813 129.71875 104.910156 129.628906 104.921875 L 129.917969 105.257813 L 129.691406 105.257813 L 129.421875 104.925781 L 129.335938 104.925781 L 129.335938 105.257813 L 129.148438 105.257813 L 129.148438 104.375 Z M 129.5 105.558594 C 129.601563 105.558594 129.699219 105.539063 129.785156 105.5 C 129.875 105.460938 129.953125 105.410156 130.019531 105.34375 C 130.085938 105.277344 130.136719 105.195313 130.175781 105.105469 C 130.214844 105.015625 130.234375 104.921875 130.234375 104.816406 C 130.234375 104.714844 130.214844 104.621094 130.175781 104.53125 C 130.136719 104.441406 130.085938 104.359375 130.019531 104.292969 C 129.953125 104.226563 129.875 104.175781 129.785156 104.136719 C 129.699219 104.097656 129.601563 104.078125 129.5 104.078125 C 129.394531 104.078125 129.296875 104.097656 129.207031 104.136719 C 129.117188 104.175781 129.039063 104.226563 128.972656 104.292969 C 128.90625 104.359375 128.851563 104.441406 128.8125 104.53125 C 128.777344 104.621094 128.757813 104.714844 128.757813 104.816406 C 128.757813 104.921875 128.777344 105.015625 128.8125 105.105469 C 128.851563 105.195313 128.90625 105.277344 128.972656 105.34375 C 129.039063 105.410156 129.117188 105.460938 129.207031 105.5 C 129.296875 105.539063 129.394531 105.558594 129.5 105.558594 Z M 129.5 103.867188 C 129.632813 103.867188 129.757813 103.894531 129.875 103.941406 C 129.992188 103.992188 130.097656 104.058594 130.183594 104.148438 C 130.269531 104.234375 130.339844 104.332031 130.390625 104.449219 C 130.441406 104.566406 130.464844 104.6875 130.464844 104.816406 C 130.464844 104.949219 130.441406 105.070313 130.390625 105.1875 C 130.339844 105.300781 130.269531 105.402344 130.183594 105.488281 C 130.097656 105.574219 129.992188 105.640625 129.875 105.691406 C 129.757813 105.742188 129.632813 105.769531 129.5 105.769531 C 129.363281 105.769531 129.234375 105.742188 129.117188 105.691406 C 128.996094 105.640625 128.894531 105.574219 128.808594 105.488281 C 128.722656 105.402344 128.652344 105.300781 128.601563 105.1875 C 128.550781 105.070313 128.527344 104.949219 128.527344 104.816406 C 128.527344 104.6875 128.550781 104.566406 128.601563 104.449219 C 128.652344 104.332031 128.722656 104.234375 128.808594 104.148438 C 128.894531 104.058594 128.996094 103.992188 129.117188 103.941406 C 129.234375 103.894531 129.363281 103.867188 129.5 103.867188 Z M 40.324219 100.472656 C 40.324219 98.792969 41.425781 97.414063 43.222656 97.414063 C 44.945313 97.414063 46.105469 98.734375 46.105469 100.472656 C 46.105469 102.214844 44.945313 103.535156 43.222656 103.535156 C 41.425781 103.535156 40.324219 102.152344 40.324219 100.472656 Z M 48.0625 100.472656 L 48.0625 95.695313 L 45.984375 95.695313 L 45.984375 96.855469 C 45.324219 95.996094 44.324219 95.453125 42.964844 95.453125 C 40.285156 95.453125 38.183594 97.554688 38.183594 100.472656 C 38.183594 103.394531 40.285156 105.492188 42.964844 105.492188 C 44.324219 105.492188 45.324219 104.953125 45.984375 104.09375 L 45.984375 105.253906 L 48.0625 105.253906 Z M 118.292969 100.472656 C 118.292969 98.792969 119.394531 97.414063 121.195313 97.414063 C 122.914063 97.414063 124.074219 98.734375 124.074219 100.472656 C 124.074219 102.214844 122.914063 103.535156 121.195313 103.535156 C 119.394531 103.535156 118.292969 102.152344 118.292969 100.472656 Z M 126.03125 100.472656 L 126.03125 91.855469 L 123.953125 91.855469 L 123.953125 96.855469 C 123.292969 95.996094 122.292969 95.453125 120.933594 95.453125 C 118.253906 95.453125 116.152344 97.554688 116.152344 100.472656 C 116.152344 103.394531 118.253906 105.492188 120.933594 105.492188 C 122.292969 105.492188 123.292969 104.953125 123.953125 104.09375 L 123.953125 105.253906 L 126.03125 105.253906 Z M 73.859375 97.316406 C 75.199219 97.316406 76.058594 98.15625 76.28125 99.632813 L 71.320313 99.632813 C 71.539063 98.253906 72.378906 97.316406 73.859375 97.316406 Z M 73.902344 95.453125 C 71.101563 95.453125 69.140625 97.496094 69.140625 100.472656 C 69.140625 103.515625 71.179688 105.492188 74.039063 105.492188 C 75.480469 105.492188 76.800781 105.132813 77.960938 104.152344 L 76.941406 102.613281 C 76.140625 103.253906 75.121094 103.613281 74.160156 103.613281 C 72.820313 103.613281 71.601563 102.992188 71.300781 101.273438 L 78.398438 101.273438 C 78.417969 101.015625 78.441406 100.753906 78.441406 100.472656 C 78.417969 97.496094 76.578125 95.453125 73.902344 95.453125 Z M 98.996094 100.472656 C 98.996094 98.792969 100.097656 97.414063 101.894531 97.414063 C 103.617188 97.414063 104.777344 98.734375 104.777344 100.472656 C 104.777344 102.214844 103.617188 103.535156 101.894531 103.535156 C 100.097656 103.535156 98.996094 102.152344 98.996094 100.472656 Z M 106.734375 100.472656 L 106.734375 95.695313 L 104.65625 95.695313 L 104.65625 96.855469 C 103.996094 95.996094 102.996094 95.453125 101.636719 95.453125 C 98.957031 95.453125 96.855469 97.554688 96.855469 100.472656 C 96.855469 103.394531 98.957031 105.492188 101.636719 105.492188 C 102.996094 105.492188 103.996094 104.953125 104.65625 104.09375 L 104.65625 105.253906 L 106.734375 105.253906 Z M 87.257813 100.472656 C 87.257813 103.375 89.277344 105.492188 92.359375 105.492188 C 93.796875 105.492188 94.757813 105.175781 95.796875 104.355469 L 94.796875 102.675781 C 94.019531 103.234375 93.199219 103.535156 92.296875 103.535156 C 90.636719 103.515625 89.417969 102.3125 89.417969 100.472656 C 89.417969 98.632813 90.636719 97.433594 92.296875 97.414063 C 93.199219 97.414063 94.019531 97.714844 94.796875 98.273438 L 95.796875 96.59375 C 94.757813 95.773438 93.796875 95.453125 92.359375 95.453125 C 89.277344 95.453125 87.257813 97.574219 87.257813 100.472656 Z M 114.054688 95.453125 C 112.855469 95.453125 112.074219 96.015625 111.535156 96.855469 L 111.535156 95.695313 L 109.476563 95.695313 L 109.476563 105.253906 L 111.554688 105.253906 L 111.554688 99.894531 C 111.554688 98.316406 112.234375 97.433594 113.59375 97.433594 C 114.015625 97.433594 114.453125 97.496094 114.894531 97.675781 L 115.535156 95.714844 C 115.074219 95.535156 114.472656 95.453125 114.054688 95.453125 Z M 58.34375 96.453125 C 57.34375 95.792969 55.960938 95.453125 54.441406 95.453125 C 52.023438 95.453125 50.464844 96.613281 50.464844 98.515625 C 50.464844 100.074219 51.621094 101.035156 53.761719 101.332031 L 54.742188 101.472656 C 55.882813 101.632813 56.421875 101.933594 56.421875 102.472656 C 56.421875 103.214844 55.664063 103.632813 54.242188 103.632813 C 52.804688 103.632813 51.761719 103.175781 51.0625 102.632813 L 50.082031 104.253906 C 51.222656 105.09375 52.664063 105.492188 54.222656 105.492188 C 56.980469 105.492188 58.582031 104.195313 58.582031 102.375 C 58.582031 100.695313 57.324219 99.8125 55.242188 99.515625 L 54.261719 99.375 C 53.363281 99.253906 52.644531 99.074219 52.644531 98.433594 C 52.644531 97.734375 53.324219 97.316406 54.464844 97.316406 C 55.683594 97.316406 56.863281 97.773438 57.441406 98.132813 Z M 85.160156 95.453125 C 83.960938 95.453125 83.179688 96.015625 82.640625 96.855469 L 82.640625 95.695313 L 80.578125 95.695313 L 80.578125 105.253906 L 82.660156 105.253906 L 82.660156 99.894531 C 82.660156 98.316406 83.339844 97.433594 84.699219 97.433594 C 85.117188 97.433594 85.558594 97.496094 86 97.675781 L 86.636719 95.714844 C 86.179688 95.535156 85.578125 95.453125 85.160156 95.453125 Z M 67.421875 95.695313 L 64.023438 95.695313 L 64.023438 92.796875 L 61.921875 92.796875 L 61.921875 95.695313 L 59.980469 95.695313 L 59.980469 97.59375 L 61.921875 97.59375 L 61.921875 101.953125 C 61.921875 104.175781 62.78125 105.492188 65.242188 105.492188 C 66.140625 105.492188 67.179688 105.214844 67.839844 104.753906 L 67.242188 102.972656 C 66.621094 103.332031 65.941406 103.515625 65.402344 103.515625 C 64.359375 103.515625 64.023438 102.875 64.023438 101.914063 L 64.023438 97.59375 L 67.421875 97.59375 Z M 36.34375 105.253906 L 36.34375 99.253906 C 36.34375 96.996094 34.90625 95.476563 32.585938 95.453125 C 31.367188 95.433594 30.105469 95.816406 29.226563 97.15625 C 28.566406 96.09375 27.527344 95.453125 26.066406 95.453125 C 25.046875 95.453125 24.046875 95.753906 23.265625 96.875 L 23.265625 95.695313 L 21.1875 95.695313 L 21.1875 105.253906 L 23.285156 105.253906 L 23.285156 99.953125 C 23.285156 98.292969 24.207031 97.414063 25.625 97.414063 C 27.007813 97.414063 27.707031 98.316406 27.707031 99.933594 L 27.707031 105.253906 L 29.804688 105.253906 L 29.804688 99.953125 C 29.804688 98.292969 30.765625 97.414063 32.144531 97.414063 C 33.566406 97.414063 34.246094 98.316406 34.246094 99.933594 L 34.246094 105.253906 L 36.34375 105.253906 "/>
</g>
</svg>
